<svg width="35" height="33" viewBox="0 0 35 33" fill="none" xmlns="http://www.w3.org/2000/svg">
<path d="M20.8872 13.1211H17.5001H14.113C12.2501 13.1211 10.7259 14.664 10.7259 16.5497V21.6925C10.7259 22.3211 11.0081 22.8925 11.4033 23.2925C11.7985 23.6925 12.363 23.9783 12.984 23.9783V29.1211C12.984 31.0068 14.5082 32.5497 16.3711 32.5497H17.5001H18.6291C20.492 32.5497 22.0162 31.0068 22.0162 29.1211V23.9783C22.6372 23.9783 23.2017 23.7497 23.5969 23.2925C23.992 22.8925 24.2743 22.3211 24.2743 21.6925V16.5497C24.2743 14.664 22.7501 13.1211 20.8872 13.1211Z" fill="#2A852E"/>
<path d="M17.5 10.8354C19.6824 10.8354 21.4516 9.04449 21.4516 6.83535C21.4516 4.62622 19.6824 2.83536 17.5 2.83536C15.3176 2.83536 13.5484 4.62622 13.5484 6.83535C13.5484 9.04449 15.3176 10.8354 17.5 10.8354Z" fill="#2A852E"/>
<path d="M9.37097 26.0925C9.25807 25.9782 9.08872 25.8639 8.97581 25.7497C7.90323 24.6068 7.28226 23.1782 7.28226 21.6925V16.5497C7.28226 14.7211 8.01613 13.0068 9.20162 11.8068C9.54033 11.464 9.25807 10.8354 8.80646 10.8354C7.84678 10.8354 6.7742 10.8354 6.7742 10.8354H3.3871C1.52419 10.8354 0 12.3782 0 14.264V19.4068C0 20.0354 0.282259 20.6068 0.67742 21.0068C1.07258 21.4068 1.6371 21.6925 2.25807 21.6925V26.8354C2.25807 28.7211 3.78226 30.2639 5.64517 30.2639H6.7742H7.90323C8.4113 30.2639 8.86291 30.1497 9.25807 29.9782C9.48388 29.8639 9.59678 29.6925 9.59678 29.4639C9.59678 28.7782 9.59678 27.1782 9.59678 26.5497C9.59678 26.3782 9.54033 26.2068 9.37097 26.0925Z" fill="#2A852E"/>
<path d="M6.77419 8.54965C8.9566 8.54965 10.7258 6.75879 10.7258 4.54965C10.7258 2.34051 8.9566 0.549652 6.77419 0.549652C4.59177 0.549652 2.82257 2.34051 2.82257 4.54965C2.82257 6.75879 4.59177 8.54965 6.77419 8.54965Z" fill="#2A852E"/>
<path d="M31.6129 10.8354H28.2258C28.2258 10.8354 27.1533 10.8354 26.1936 10.8354C25.6855 10.8354 25.4597 11.4068 25.7984 11.8068C26.9839 13.064 27.7178 14.7211 27.7178 16.5497V21.6925C27.7178 23.1782 27.1533 24.6068 26.0242 25.7497C25.9113 25.8639 25.7984 25.9782 25.6291 26.0925C25.5162 26.2068 25.4033 26.3782 25.4033 26.5497C25.4033 27.1782 25.4033 28.7211 25.4033 29.4639C25.4033 29.6925 25.5162 29.9211 25.742 29.9782C26.1371 30.1497 26.5887 30.2639 27.0968 30.2639H28.2258H29.3549C31.2178 30.2639 32.742 28.7211 32.742 26.8354V21.6925C33.3629 21.6925 33.9275 21.464 34.3226 21.0068C34.7178 20.6068 35 20.0354 35 19.4068V14.264C35 12.3782 33.4758 10.8354 31.6129 10.8354Z" fill="#2A852E"/>
<path d="M28.2258 8.54965C30.4082 8.54965 32.1774 6.75879 32.1774 4.54965C32.1774 2.34051 30.4082 0.549652 28.2258 0.549652C26.0434 0.549652 24.2742 2.34051 24.2742 4.54965C24.2742 6.75879 26.0434 8.54965 28.2258 8.54965Z" fill="#2A852E"/>
</svg>
