<svg width="99" height="99" viewBox="0 0 99 99" fill="none" xmlns="http://www.w3.org/2000/svg">
<path d="M49.5 0C36.3718 0 23.7813 5.21516 14.4982 14.4982C5.21516 23.7813 0 36.3718 0 49.5C0 62.6282 5.21516 75.2187 14.4982 84.5018C23.7813 93.7848 36.3718 99 49.5 99C62.6282 99 75.2187 93.7848 84.5018 84.5018C93.7848 75.2187 99 62.6282 99 49.5C99 36.3718 93.7848 23.7813 84.5018 14.4982C75.2187 5.21516 62.6282 0 49.5 0V0Z" fill="white" fill-opacity="0.72"/>
<path d="M39.3638 28.0001C39.0271 28.0031 38.6946 28.1182 38.3884 28.3378C38.0822 28.5574 37.8093 28.8765 37.5876 29.2739C37.366 29.6713 37.2007 30.138 37.1028 30.643C37.0049 31.1481 36.9765 31.68 37.0195 32.2035C38.4824 49.9771 38.4824 49.023 37.0195 66.7966C36.9662 67.445 37.0227 68.1041 37.1832 68.7076C37.3437 69.311 37.6027 69.8376 37.9341 70.2346C38.2656 70.6315 38.6578 70.8848 39.0714 70.969C39.485 71.0532 39.9054 70.9653 40.2905 70.7142L67.5367 52.9406C67.97 52.6577 68.3402 52.18 68.6006 51.5677C68.861 50.9554 69 50.2359 69 49.5C69 48.7641 68.861 48.0447 68.6006 47.4324C68.3402 46.8201 67.97 46.3424 67.5367 46.0594L40.2905 28.2859C39.9969 28.0944 39.6818 27.9972 39.3638 28.0001V28.0001Z" fill="black"/>
</svg>
