<svg xmlns="http://www.w3.org/2000/svg" version="1.1" xmlns:xlink="http://www.w3.org/1999/xlink" xmlns:svgjs="http://svgjs.com/svgjs" width="3000" height="1000" preserveAspectRatio="none" viewBox="0 0 3000 1000">
    <g mask="url(&quot;#SvgjsMask1036&quot;)" fill="none">
        <rect width="3000" height="1000" x="0" y="0" fill="#113613"></rect>
        <path d="M11 1000L1011 0L1713 0L713 1000z" fill="url(#SvgjsLinearGradient1037)"></path>
        <path d="M721 1000L1721 0L2643.5 0L1643.5 1000z" fill="url(#SvgjsLinearGradient1037)"></path>
        <path d="M1402 1000L2402 0L2582 0L1582 1000z" fill="url(#SvgjsLinearGradient1037)"></path>
        <path d="M2979 1000L1979 0L1275.5 0L2275.5 1000z" fill="url(#SvgjsLinearGradient1038)"></path>
        <path d="M2310 1000L1310 0L629 0L1629 1000z" fill="url(#SvgjsLinearGradient1038)"></path>
        <path d="M1653 1000L653 0L155 0L1155 1000z" fill="url(#SvgjsLinearGradient1038)"></path>
        <path d="M2439.95098068862 1000L3000 439.9509806886201L3000 1000z" fill="url(#SvgjsLinearGradient1037)"></path>
        <path d="M0 1000L560.0490193113799 1000L 0 439.9509806886201z" fill="url(#SvgjsLinearGradient1038)"></path>
    </g>
    <defs>
        <mask id="SvgjsMask1036">
            <rect width="3000" height="1000" fill="#ffffff"></rect>
        </mask>
        <linearGradient x1="0%" y1="100%" x2="100%" y2="0%" id="SvgjsLinearGradient1037">
            <stop stop-color="#256630" offset="0"></stop>
            <stop stop-opacity="0" stop-color="#256630" offset="0.66"></stop>
        </linearGradient>
        <linearGradient x1="100%" y1="100%" x2="0%" y2="0%" id="SvgjsLinearGradient1038">
            <stop stop-color="#256630" offset="0"></stop>
            <stop stop-opacity="0" stop-color="#256630" offset="0.66"></stop>
        </linearGradient>
    </defs>
</svg>