
<svg id="visual" viewBox="0 0 900 600" width="900" height="600" xmlns="http://www.w3.org/2000/svg" xmlns:xlink="http://www.w3.org/1999/xlink" version="1.1"><path d="M530 600L548 550C566 500 602 400 629 300C656 200 674 100 683 50L692 0L900 0L900 50C900 100 900 200 900 300C900 400 900 500 900 550L900 600Z" fill="#2e5e28"></path><path d="M404 600L432.5 550C461 500 518 400 552.5 300C587 200 599 100 605 50L611 0L693 0L684 50C675 100 657 200 630 300C603 400 567 500 549 550L531 600Z" fill="#1c3e18"></path><path d="M107 600L158 550C209 500 311 400 353 300C395 200 377 100 368 50L359 0L612 0L606 50C600 100 588 200 553.5 300C519 400 462 500 433.5 550L405 600Z" fill="#132b10"></path><path d="M0 600L0 550C0 500 0 400 0 300C0 200 0 100 0 50L0 0L360 0L369 50C378 100 396 200 354 300C312 400 210 500 159 550L108 600Z" fill="#11240e"></path></svg>