<svg width="40" height="32" viewBox="0 0 40 32" fill="none" xmlns="http://www.w3.org/2000/svg">
<path d="M39 29.5296V12.3286H1V29.5296C1 29.9066 1.14977 30.2682 1.41635 30.5347C1.68294 30.8013 2.04451 30.9511 2.42151 30.9511H37.5785C37.9549 30.9493 38.3155 30.799 38.5817 30.5328C38.8479 30.2666 38.9982 29.906 39 29.5296Z" fill="#9b9b9b" stroke="#9b9b9b" stroke-width="0.888889"/>
<path d="M39 7.63556C38.9982 7.2591 38.8479 6.89858 38.5817 6.63238C38.3155 6.36618 37.9549 6.21584 37.5785 6.21405H29.8928V2.56844C29.8928 2.19143 29.743 1.82987 29.4764 1.56328C29.2099 1.29669 28.8483 1.14693 28.4713 1.14693H11.5287C11.3418 1.14603 11.1565 1.18218 10.9837 1.2533C10.8108 1.32442 10.6537 1.42909 10.5216 1.56127C10.3894 1.69345 10.2847 1.85052 10.2136 2.02339C10.1425 2.19626 10.1063 2.38151 10.1072 2.56844V6.21405H2.42151C2.04451 6.21405 1.68294 6.36381 1.41635 6.6304C1.14977 6.89699 1 7.25855 1 7.63556V10.669H39V7.63556ZM27.0498 6.21405H12.9502V3.98996H27.043V6.21405H27.0498Z" fill="#9b9b9b" stroke="#9b9b9b" stroke-width="0.888889"/>
</svg>
