<svg width="43" height="27" viewBox="0 0 43 27" fill="none" xmlns="http://www.w3.org/2000/svg">
<path d="M20.2826 25.329C20.2408 25.4782 20.1661 25.6187 20.063 25.7423C19.9599 25.8659 19.8303 25.9702 19.6817 26.0493C19.533 26.1284 19.3683 26.1807 19.1968 26.2032C19.0253 26.2258 18.8505 26.218 18.6824 26.1806L13.7109 25.0783C13.3075 24.9883 12.9337 24.8155 12.6194 24.5739L8.89968 21.706C8.63553 21.5024 8.4734 21.214 8.44896 20.9044C8.42452 20.5947 8.53977 20.2891 8.76936 20.0548C8.99895 19.8205 9.32406 19.6767 9.67319 19.6551C10.0223 19.6334 10.3668 19.7356 10.631 19.9393L14.351 22.8073L19.3225 23.9097C19.4906 23.947 19.6488 24.0133 19.7881 24.1048C19.9273 24.1963 20.0449 24.3112 20.134 24.443C20.2232 24.5748 20.2822 24.7209 20.3077 24.8729C20.3332 25.0249 20.3246 25.1799 20.2826 25.329V25.329ZM42.155 11.3943C42.0481 11.6904 41.8753 11.9646 41.6467 12.2004C41.4182 12.4362 41.1386 12.629 40.8245 12.7672L36.9864 14.4693L34.521 17.0275C34.5124 17.0364 34.5029 17.0446 34.4941 17.0533C34.486 17.0612 34.4779 17.0691 34.4696 17.0768C34.4633 17.0826 34.4575 17.0888 34.4511 17.0946L28.3815 22.4783C27.8839 22.9169 27.2108 23.163 26.5092 23.1629C26.2954 23.1629 26.0824 23.1397 25.875 23.0938L16.3151 20.9739C15.9563 20.8948 15.6204 20.7494 15.3294 20.547L6.41755 14.3661L2.45878 12.6104C2.14533 12.4714 1.86624 12.2783 1.63779 12.0426C1.40934 11.8069 1.23611 11.5331 1.12821 11.2374C1.02031 10.9416 0.979892 10.6298 1.00932 10.32C1.03876 10.0103 1.13744 9.70881 1.29963 9.43325L5.35617 2.5428C5.67895 2.00096 6.22737 1.59223 6.88474 1.40356C7.5421 1.2149 8.25652 1.2612 8.87599 1.53261L12.5667 3.16936L20.5951 1.09342C21.1998 0.937245 21.8476 0.977857 22.4216 1.20794L27.8644 3.39233H30.5674L34.4074 1.68942C35.0268 1.4178 35.7413 1.3714 36.3987 1.5601C37.0561 1.7488 37.6045 2.15769 37.9271 2.69968L41.9836 9.58998C42.1469 9.86524 42.2462 10.1668 42.2757 10.4767C42.3051 10.7866 42.2641 11.0987 42.155 11.3943V11.3943ZM31.4929 16.4079L26.2723 13.0403L24.9406 13.9261C23.7963 14.6813 22.4081 15.0891 20.9818 15.0891C19.5556 15.0891 18.1673 14.6813 17.0231 13.9261L16.1289 13.3313C15.8264 13.1301 15.5762 12.8736 15.3952 12.5791C15.2143 12.2847 15.1067 11.9592 15.0799 11.6246C15.0531 11.2901 15.1077 10.9544 15.2399 10.6402C15.3721 10.326 15.5788 10.0407 15.8462 9.8035L22.3014 4.07798C22.3957 3.99558 22.4968 3.91951 22.6039 3.85041L21.3338 3.34068L13.2969 5.41881L8.80439 13.0499L16.9553 18.7031L26.5152 20.8229L31.4929 16.4079ZM34.5746 13.3692L30.0791 5.73317H27.5835L27.579 5.73346C27.5769 5.73346 27.5749 5.73319 27.5728 5.73317H24.1676L17.7125 11.4587L18.6065 12.0535C19.2931 12.5065 20.1261 12.7512 20.9818 12.7512C21.8376 12.7512 22.6706 12.5065 23.3572 12.0535L25.4685 10.649C25.6942 10.4987 25.9683 10.4167 26.2505 10.4149C26.5327 10.413 26.8081 10.4915 27.0363 10.6387L33.3075 14.6841L34.5746 13.3692Z" fill="#9b9b9b" stroke="#9b9b9b" stroke-width="0.25"/>
</svg>
