<svg width="30" height="37" viewBox="0 0 30 37" fill="none" xmlns="http://www.w3.org/2000/svg">
<path d="M4.36694 36.3125H25.4592C27.6749 36.3125 28.9999 35.2383 28.9999 33.1668V32.6681C29.0217 27.374 22.6354 23.0774 19.8332 20.7374C19.0511 20.0852 18.6384 19.4907 18.6384 18.6275C18.6384 17.7643 19.0511 17.1889 19.8332 16.5175C22.6136 14.1391 28.9999 10.111 28.9999 4.60601V4.14575C28.9999 2.07414 27.6749 1 25.4592 1H4.36694C2.19467 1 1 2.07414 1 3.97307V4.60601C1 10.111 7.38632 14.1391 10.1885 16.5175C10.9705 17.1889 11.3832 17.7643 11.3832 18.6275C11.3832 19.4907 10.9705 20.0852 10.1885 20.7374C7.38632 23.0774 1 27.374 1 32.6681V33.3394C1 35.2383 2.19467 36.3125 4.36694 36.3125ZM6.62605 33.6847C5.58338 33.6847 5.25761 32.6681 6.27849 31.9967L13.7075 27.1055C13.9464 26.9329 14.0768 26.8178 14.0768 26.5301V17.304C14.0768 16.2682 13.8379 15.7503 13.0124 15.1365C11.7742 14.2158 9.42828 12.7581 8.36383 11.4345C7.92934 10.8975 7.97281 10.4563 8.51592 10.4563H21.4841C22.0271 10.4563 22.0706 10.8975 21.6361 11.4345C20.5718 12.7581 18.2475 14.2158 16.9876 15.1365C16.1622 15.7503 15.9232 16.2682 15.9232 17.304V26.5301C15.9232 26.8178 16.0535 26.9329 16.2925 27.1055L23.7431 31.9967C24.7641 32.6681 24.4166 33.6847 23.3957 33.6847H6.62605Z" fill="#9b9b9b" stroke="#9b9b9b" stroke-width="1.14286"/>
</svg>
