<svg width="18" height="26" viewBox="0 0 18 26" fill="none" xmlns="http://www.w3.org/2000/svg">
<path d="M9.00012 0C4.03741 0 0 3.78585 0 8.43935C0 9.70843 0.293156 10.9281 0.871091 12.0653C0.882725 12.0896 0.89494 12.1135 0.907969 12.1374L7.70802 24.4833C7.95767 24.9365 8.45615 25.2212 9 25.2212C9.54397 25.2212 10.0424 24.9366 10.292 24.4833L17.0902 12.1408C17.1019 12.1195 17.1129 12.098 17.1233 12.0763C17.7051 10.9358 18 9.71246 18 8.43935C18.0002 3.78585 13.9628 0 9.00012 0ZM9.00012 12.8567C6.40255 12.8567 4.28926 10.8751 4.28926 8.43935C4.28926 6.00374 6.40255 4.02213 9.00012 4.02213C11.5977 4.02213 13.711 6.00374 13.711 8.43935C13.711 10.8751 11.5977 12.8567 9.00012 12.8567Z" fill="#E4E4E4"/>
</svg>
