<svg width="32" height="24" viewBox="0 0 32 24" fill="none" xmlns="http://www.w3.org/2000/svg">
<path d="M2 3.96816V3.25C2 2.78587 2.18437 2.34075 2.51256 2.01256C2.84075 1.68437 3.28587 1.5 3.75 1.5H28.25C28.7141 1.5 29.1592 1.68437 29.4874 2.01256C29.8156 2.34075 30 2.78587 30 3.25V3.96816L16 12.7182L2 3.96816ZM16.4638 14.4922C16.3246 14.579 16.164 14.6251 16 14.6251C15.836 14.6251 15.6754 14.579 15.5363 14.4922L2 6.03184V20.75C2 21.2141 2.18437 21.6592 2.51256 21.9874C2.84075 22.3156 3.28587 22.5 3.75 22.5H28.25C28.7141 22.5 29.1592 22.3156 29.4874 21.9874C29.8156 21.6592 30 21.2141 30 20.75V6.03184L16.4638 14.4922Z" fill="black"/>
</svg>
