<svg width="32" height="32" viewBox="0 0 32 32" fill="none" xmlns="http://www.w3.org/2000/svg">
<g clip-path="url(#clip0_229_4724)">
<path d="M2.87286 24.0069C2.87286 22.3885 2.87286 3.44051 2.87286 1.82079C4.47522 1.82079 21.5693 1.82079 23.1716 1.82079C23.1716 2.39348 23.1716 5.13545 23.1716 8.50657C23.5636 8.43423 23.9656 8.38508 24.3778 8.38508C24.5889 8.38508 24.7885 8.42846 24.9967 8.4473V0H1.04919V25.8276H16.1099V24.0069C10.6288 24.0069 3.85339 24.0069 2.87286 24.0069Z" fill="#9b9b9b" stroke="#9b9b9b" stroke-width="0.134088"/>
<path d="M5.46594 13.8676H17.8353C17.9567 13.1864 18.1968 12.553 18.5121 11.96H5.46594V13.8676Z" fill="#9b9b9b" stroke="#9b9b9b" stroke-width="0.134088"/>
<path d="M20.5758 5.99591H5.46594V7.90345H20.5758V5.99591Z" fill="#9b9b9b" stroke="#9b9b9b" stroke-width="0.134088"/>
<path d="M5.46594 19.8331H18.2894C18.6321 19.6249 18.998 19.4557 19.3899 19.3516C19.0182 18.9191 18.7131 18.4333 18.4527 17.9256H5.46594V19.8331Z" fill="#9b9b9b" stroke="#9b9b9b" stroke-width="0.134088"/>
<path d="M24.3792 20.024C27.1328 20.024 29.3512 17.7984 29.3512 15.0534C29.3512 12.3057 27.1327 10.0815 24.3792 10.0815C21.6373 10.0815 19.4174 12.3057 19.4174 15.0534C19.4174 17.7984 21.6373 20.024 24.3792 20.024Z" fill="#9b9b9b" stroke="#9b9b9b" stroke-width="0.134088"/>
<path d="M28.3693 20.831H20.4008C18.9777 20.831 17.8121 22.1355 17.8121 23.7422V31.7426C17.8121 31.8308 17.8526 31.9089 17.8583 32.0001H30.9045C30.9102 31.9104 30.9507 31.8308 30.9507 31.7426V23.7422C30.9566 22.1398 29.7938 20.831 28.3693 20.831Z" fill="#9b9b9b" stroke="#9b9b9b" stroke-width="0.134088"/>
</g>
<defs>
<clipPath id="clip0_229_4724">
<rect width="32" height="32" fill="#9b9b9b"/>
</clipPath>
</defs>
</svg>
