<svg width="11" height="11" viewBox="0 0 11 11" fill="none" xmlns="http://www.w3.org/2000/svg">
<path d="M10.9333 0.516667C10.8488 0.313042 10.687 0.151229 10.4833 0.0666666C10.3832 0.0239658 10.2756 0.00131666 10.1667 0H1.83334C1.61233 0 1.40037 0.0877975 1.24409 0.244078C1.08781 0.400358 1.00001 0.61232 1.00001 0.833333C1.00001 1.05435 1.08781 1.26631 1.24409 1.42259C1.40037 1.57887 1.61233 1.66667 1.83334 1.66667H8.15834L1.24168 8.575C1.16357 8.65247 1.10157 8.74464 1.05927 8.84619C1.01696 8.94774 0.995178 9.05666 0.995178 9.16667C0.995178 9.27668 1.01696 9.3856 1.05927 9.48715C1.10157 9.5887 1.16357 9.68086 1.24168 9.75833C1.31915 9.83644 1.41131 9.89844 1.51286 9.94074C1.61441 9.98305 1.72333 10.0048 1.83334 10.0048C1.94335 10.0048 2.05227 9.98305 2.15382 9.94074C2.25537 9.89844 2.34754 9.83644 2.42501 9.75833L9.33334 2.84167V9.16667C9.33334 9.38768 9.42114 9.59964 9.57742 9.75592C9.7337 9.9122 9.94566 10 10.1667 10C10.3877 10 10.5997 9.9122 10.7559 9.75592C10.9122 9.59964 11 9.38768 11 9.16667V0.833333C10.9987 0.724436 10.976 0.616852 10.9333 0.516667V0.516667Z" fill="#FFFFFF"/>
</svg>
