<svg width="253" height="38" viewBox="0 0 253 38" fill="none" xmlns="http://www.w3.org/2000/svg">
<path d="M18.7344 13.375H17.5625C17.3438 12.5521 16.8854 11.6719 16.1875 10.7344C15.5 9.79688 14.8385 9.28125 14.2031 9.1875C13.8802 9.14583 13.4948 9.11458 13.0469 9.09375C12.6094 9.07292 12.1094 9.0625 11.5469 9.0625H7.82812V17.9688H10.375C11.1458 17.9688 11.7448 17.8906 12.1719 17.7344C12.599 17.5677 12.9635 17.3177 13.2656 16.9844C13.474 16.7552 13.6615 16.401 13.8281 15.9219C14.0052 15.4323 14.1198 14.9115 14.1719 14.3594H15.3594V23.0625H14.1719C14.1406 22.6042 14.0312 22.0833 13.8438 21.5C13.6667 20.9167 13.474 20.4948 13.2656 20.2344C12.9531 19.849 12.5573 19.5885 12.0781 19.4531C11.6094 19.3073 11.0417 19.2344 10.375 19.2344H7.82812V26.875C7.82812 27.2188 7.89583 27.526 8.03125 27.7969C8.16667 28.0677 8.40625 28.2865 8.75 28.4531C8.90625 28.526 9.24479 28.6146 9.76562 28.7188C10.2865 28.8229 10.6823 28.8802 10.9531 28.8906V30H1.34375V28.8906C1.65625 28.8698 2.07292 28.8385 2.59375 28.7969C3.11458 28.7448 3.45312 28.6823 3.60938 28.6094C3.92188 28.474 4.14583 28.276 4.28125 28.0156C4.42708 27.7448 4.5 27.4219 4.5 27.0469V11.0469C4.5 10.7031 4.44271 10.401 4.32812 10.1406C4.21354 9.86979 3.97396 9.65104 3.60938 9.48438C3.32812 9.34896 2.94792 9.22917 2.46875 9.125C2 9.02083 1.625 8.95833 1.34375 8.9375V7.82812H18.7344V13.375ZM31.4694 16.5781C31.4694 17.1094 31.3392 17.5833 31.0788 18C30.8183 18.4062 30.4173 18.6094 29.8756 18.6094C29.2923 18.6094 28.8444 18.4583 28.5319 18.1562C28.2298 17.8542 28.0788 17.5208 28.0788 17.1562C28.0788 16.9271 28.0944 16.7188 28.1256 16.5312C28.1673 16.3438 28.2038 16.1562 28.235 15.9688C27.7454 15.9688 27.1725 16.1667 26.5163 16.5625C25.86 16.9583 25.3027 17.5208 24.8444 18.25V27.2188C24.8444 27.5833 24.9121 27.8802 25.0475 28.1094C25.1933 28.3385 25.4173 28.5104 25.7194 28.625C25.9798 28.7292 26.3131 28.8073 26.7194 28.8594C27.136 28.9115 27.4954 28.9479 27.7975 28.9688V30H19.6725V28.9688C19.9121 28.9479 20.1569 28.9271 20.4069 28.9062C20.6673 28.8854 20.8913 28.8438 21.0788 28.7812C21.3704 28.6875 21.584 28.526 21.7194 28.2969C21.8652 28.0573 21.9381 27.75 21.9381 27.375V17.8594C21.9381 17.5365 21.86 17.2188 21.7038 16.9062C21.5579 16.5938 21.3496 16.3438 21.0788 16.1562C20.8808 16.0312 20.6465 15.9427 20.3756 15.8906C20.1048 15.8281 19.8131 15.7865 19.5006 15.7656V14.75L24.6256 14.4062L24.8444 14.625V16.7969H24.9225C25.5683 15.9531 26.2871 15.3125 27.0788 14.875C27.8704 14.4375 28.5944 14.2188 29.2506 14.2188C29.9069 14.2188 30.4381 14.4323 30.8444 14.8594C31.261 15.2865 31.4694 15.8594 31.4694 16.5781ZM39.6419 30H32.1887V28.9688C32.4283 28.9479 32.6731 28.9271 32.9231 28.9062C33.1835 28.8854 33.4075 28.8438 33.595 28.7812C33.8867 28.6875 34.1002 28.526 34.2356 28.2969C34.3815 28.0573 34.4544 27.75 34.4544 27.375V17.8594C34.4544 17.526 34.3762 17.224 34.22 16.9531C34.0742 16.6719 33.8658 16.4375 33.595 16.25C33.3971 16.125 33.1106 16.0208 32.7356 15.9375C32.3606 15.8438 32.0169 15.7865 31.7044 15.7656V14.75L37.1419 14.4062L37.3606 14.625V27.1875C37.3606 27.5521 37.4283 27.8542 37.5637 28.0938C37.7096 28.3333 37.9335 28.5104 38.2356 28.625C38.4648 28.7188 38.6887 28.7969 38.9075 28.8594C39.1262 28.9115 39.371 28.9479 39.6419 28.9688V30ZM37.6731 8.32812C37.6731 8.92188 37.4752 9.44271 37.0794 9.89062C36.694 10.3281 36.2148 10.5469 35.6419 10.5469C35.1106 10.5469 34.6471 10.3385 34.2512 9.92188C33.8658 9.49479 33.6731 9.01042 33.6731 8.46875C33.6731 7.89583 33.8658 7.39583 34.2512 6.96875C34.6471 6.54167 35.1106 6.32812 35.6419 6.32812C36.2356 6.32812 36.72 6.53125 37.095 6.9375C37.4804 7.33333 37.6731 7.79688 37.6731 8.32812ZM54.58 26.375C53.9342 27.6042 53.0696 28.5833 51.9863 29.3125C50.9029 30.0417 49.6581 30.4062 48.2519 30.4062C47.0123 30.4062 45.9238 30.1875 44.9863 29.75C44.0592 29.3125 43.2935 28.7188 42.6894 27.9688C42.0852 27.2188 41.6321 26.3438 41.33 25.3438C41.0383 24.3438 40.8925 23.2865 40.8925 22.1719C40.8925 21.1719 41.0488 20.1927 41.3613 19.2344C41.6842 18.2656 42.1529 17.3958 42.7675 16.625C43.3613 15.8854 44.0956 15.2917 44.9706 14.8438C45.856 14.3854 46.8456 14.1562 47.9394 14.1562C49.0644 14.1562 50.0279 14.3333 50.83 14.6875C51.6321 15.0417 52.2831 15.526 52.7831 16.1406C53.2623 16.724 53.6165 17.4115 53.8456 18.2031C54.0852 18.9948 54.205 19.8542 54.205 20.7812V21.8125H44.0019C44.0019 22.8229 44.0956 23.7396 44.2831 24.5625C44.481 25.3854 44.7883 26.1094 45.205 26.7344C45.6113 27.3385 46.1425 27.8177 46.7988 28.1719C47.455 28.5156 48.2363 28.6875 49.1425 28.6875C50.0696 28.6875 50.8665 28.474 51.5331 28.0469C52.2102 27.6094 52.8613 26.8281 53.4863 25.7031L54.58 26.375ZM51.1269 20.5C51.1269 19.9167 51.0748 19.2917 50.9706 18.625C50.8769 17.9583 50.7206 17.401 50.5019 16.9531C50.2623 16.474 49.9342 16.0833 49.5175 15.7812C49.1008 15.4792 48.5644 15.3281 47.9081 15.3281C46.8144 15.3281 45.9029 15.7865 45.1738 16.7031C44.455 17.6094 44.0644 18.875 44.0019 20.5H51.1269ZM72.7369 30H65.19V28.9688C65.4296 28.9479 65.69 28.9271 65.9712 28.9062C66.2629 28.8854 66.5025 28.8438 66.69 28.7812C66.9817 28.6875 67.1952 28.526 67.3306 28.2969C67.4765 28.0573 67.5494 27.75 67.5494 27.375V19.4531C67.5494 18.3594 67.289 17.5156 66.7681 16.9219C66.2577 16.3281 65.6327 16.0312 64.8931 16.0312C64.341 16.0312 63.8358 16.1198 63.3775 16.2969C62.9192 16.4635 62.5129 16.6719 62.1587 16.9219C61.815 17.1615 61.539 17.4219 61.3306 17.7031C61.1327 17.974 60.9869 18.1927 60.8931 18.3594V27.2188C60.8931 27.5729 60.966 27.8646 61.1119 28.0938C61.2577 28.3229 61.4765 28.5 61.7681 28.625C61.9869 28.7292 62.2212 28.8073 62.4712 28.8594C62.7317 28.9115 62.9973 28.9479 63.2681 28.9688V30H55.7212V28.9688C55.9608 28.9479 56.2056 28.9271 56.4556 28.9062C56.716 28.8854 56.94 28.8438 57.1275 28.7812C57.4192 28.6875 57.6327 28.526 57.7681 28.2969C57.914 28.0573 57.9869 27.75 57.9869 27.375V17.8594C57.9869 17.5052 57.9087 17.1823 57.7525 16.8906C57.6067 16.5885 57.3983 16.3438 57.1275 16.1562C56.9296 16.0312 56.6952 15.9427 56.4244 15.8906C56.1535 15.8281 55.8619 15.7865 55.5494 15.7656V14.75L60.6744 14.4062L60.8931 14.625V16.7969H60.9712C61.2212 16.5469 61.5337 16.25 61.9087 15.9062C62.2837 15.5521 62.6379 15.2656 62.9712 15.0469C63.3567 14.7969 63.815 14.5885 64.3462 14.4219C64.8775 14.2552 65.4765 14.1719 66.1431 14.1719C67.6223 14.1719 68.716 14.6354 69.4244 15.5625C70.1431 16.4792 70.5025 17.7031 70.5025 19.2344V27.25C70.5025 27.6146 70.565 27.9115 70.69 28.1406C70.815 28.3594 71.0285 28.5312 71.3306 28.6562C71.5806 28.7604 71.7942 28.8333 71.9712 28.875C72.1587 28.9167 72.414 28.9479 72.7369 28.9688V30ZM90.8625 29.7188L85.4875 30.0625L85.2531 29.8438V28.4062L85.1281 28.375C84.5865 28.9792 83.9146 29.474 83.1125 29.8594C82.3208 30.2448 81.5031 30.4375 80.6594 30.4375C79.7844 30.4375 78.9354 30.2448 78.1125 29.8594C77.3 29.4635 76.5917 28.9115 75.9875 28.2031C75.3729 27.4844 74.8833 26.6198 74.5188 25.6094C74.1646 24.599 73.9875 23.4844 73.9875 22.2656C73.9875 21.151 74.1802 20.0938 74.5656 19.0938C74.951 18.0938 75.4823 17.2188 76.1594 16.4688C76.7948 15.7708 77.5708 15.2135 78.4875 14.7969C79.4146 14.3802 80.3573 14.1719 81.3156 14.1719C82.0344 14.1719 82.7375 14.2656 83.425 14.4531C84.1229 14.6302 84.7219 14.8594 85.2219 15.1406V9.78125C85.2219 9.34375 85.149 8.94792 85.0031 8.59375C84.8573 8.22917 84.6542 7.95312 84.3938 7.76562C84.1021 7.56771 83.7063 7.42708 83.2063 7.34375C82.7167 7.25 82.1854 7.18229 81.6125 7.14062V6.17188L87.9094 5.8125L88.1438 6.04688V26.8281C88.1438 27.1927 88.2115 27.5052 88.3469 27.7656C88.4927 28.0156 88.701 28.2292 88.9719 28.4062C89.1698 28.5312 89.4563 28.6094 89.8313 28.6406C90.2063 28.6719 90.55 28.6927 90.8625 28.7031V29.7188ZM85.2219 27.0156V18C85.1385 17.7292 85.0031 17.4375 84.8156 17.125C84.6281 16.8125 84.3938 16.526 84.1125 16.2656C83.8104 16.0052 83.4563 15.7917 83.05 15.625C82.6438 15.4479 82.1698 15.3594 81.6281 15.3594C81.0031 15.3594 80.425 15.5208 79.8938 15.8438C79.3729 16.1667 78.9094 16.6302 78.5031 17.2344C78.1177 17.8177 77.8104 18.5625 77.5813 19.4688C77.3625 20.3646 77.2531 21.3594 77.2531 22.4531C77.2531 23.3281 77.3365 24.125 77.5031 24.8438C77.6698 25.5521 77.951 26.2135 78.3469 26.8281C78.7115 27.4115 79.175 27.8802 79.7375 28.2344C80.3104 28.5885 80.9875 28.7656 81.7688 28.7656C82.6021 28.7656 83.2896 28.5833 83.8313 28.2188C84.3833 27.8542 84.8469 27.4531 85.2219 27.0156Z" fill="white"/>
<path d="M119.879 30H110.645V28.8906C111.457 28.8385 112.129 28.7344 112.661 28.5781C113.202 28.4219 113.473 28.2292 113.473 28C113.473 27.9062 113.463 27.7917 113.442 27.6562C113.421 27.5208 113.39 27.401 113.348 27.2969L111.504 22.3281H103.739C103.447 23.0573 103.207 23.6927 103.02 24.2344C102.843 24.776 102.681 25.276 102.536 25.7344C102.4 26.1823 102.306 26.5469 102.254 26.8281C102.202 27.1094 102.176 27.3385 102.176 27.5156C102.176 27.9323 102.504 28.2552 103.161 28.4844C103.817 28.7135 104.556 28.849 105.379 28.8906V30H97.0356V28.8906C97.3065 28.8698 97.645 28.8125 98.0512 28.7188C98.4575 28.6146 98.7908 28.4792 99.0512 28.3125C99.4679 28.0312 99.7908 27.7396 100.02 27.4375C100.249 27.125 100.473 26.6979 100.692 26.1562C101.806 23.375 103.036 20.25 104.379 16.7812C105.723 13.3125 106.921 10.224 107.973 7.51562H109.223L116.614 26.6406C116.77 27.0469 116.947 27.375 117.145 27.625C117.343 27.875 117.619 28.1198 117.973 28.3594C118.213 28.5052 118.525 28.6302 118.911 28.7344C119.296 28.8281 119.619 28.8802 119.879 28.8906V30ZM110.942 20.9375L107.582 12.3438L104.286 20.9375H110.942ZM126.755 30.4062C124.526 30.4062 122.781 29.6667 121.521 28.1875C120.26 26.7083 119.63 24.724 119.63 22.2344C119.63 21.151 119.797 20.1406 120.13 19.2031C120.474 18.2552 120.969 17.3958 121.614 16.625C122.229 15.8854 123 15.2917 123.927 14.8438C124.854 14.3854 125.864 14.1562 126.958 14.1562C128.469 14.1562 129.698 14.5208 130.646 15.25C131.594 15.9688 132.067 16.9531 132.067 18.2031C132.067 18.724 131.942 19.1875 131.692 19.5938C131.442 19.9896 131.031 20.1875 130.458 20.1875C129.844 20.1875 129.364 20.0312 129.021 19.7188C128.687 19.4062 128.521 19.0573 128.521 18.6719C128.521 18.2031 128.583 17.724 128.708 17.2344C128.833 16.7344 128.906 16.3698 128.927 16.1406C128.739 15.8177 128.458 15.6042 128.083 15.5C127.719 15.3854 127.323 15.3281 126.896 15.3281C126.396 15.3281 125.916 15.4375 125.458 15.6562C125.01 15.8646 124.573 16.2552 124.146 16.8281C123.76 17.349 123.448 18.0521 123.208 18.9375C122.969 19.8229 122.849 20.8802 122.849 22.1094C122.849 24.0469 123.276 25.6302 124.13 26.8594C124.995 28.0781 126.125 28.6875 127.521 28.6875C128.531 28.6875 129.375 28.4427 130.052 27.9531C130.739 27.4635 131.375 26.7292 131.958 25.75L132.958 26.4062C132.271 27.6354 131.364 28.6094 130.239 29.3281C129.114 30.0469 127.953 30.4062 126.755 30.4062ZM140.646 30.4062C138.417 30.4062 136.672 29.6667 135.412 28.1875C134.151 26.7083 133.521 24.724 133.521 22.2344C133.521 21.151 133.688 20.1406 134.021 19.2031C134.365 18.2552 134.86 17.3958 135.506 16.625C136.12 15.8854 136.891 15.2917 137.818 14.8438C138.745 14.3854 139.756 14.1562 140.849 14.1562C142.36 14.1562 143.589 14.5208 144.537 15.25C145.485 15.9688 145.959 16.9531 145.959 18.2031C145.959 18.724 145.834 19.1875 145.584 19.5938C145.334 19.9896 144.922 20.1875 144.349 20.1875C143.735 20.1875 143.256 20.0312 142.912 19.7188C142.579 19.4062 142.412 19.0573 142.412 18.6719C142.412 18.2031 142.474 17.724 142.599 17.2344C142.724 16.7344 142.797 16.3698 142.818 16.1406C142.631 15.8177 142.349 15.6042 141.974 15.5C141.61 15.3854 141.214 15.3281 140.787 15.3281C140.287 15.3281 139.808 15.4375 139.349 15.6562C138.901 15.8646 138.464 16.2552 138.037 16.8281C137.651 17.349 137.339 18.0521 137.099 18.9375C136.86 19.8229 136.74 20.8802 136.74 22.1094C136.74 24.0469 137.167 25.6302 138.021 26.8594C138.886 28.0781 140.016 28.6875 141.412 28.6875C142.422 28.6875 143.266 28.4427 143.943 27.9531C144.631 27.4635 145.266 26.7292 145.849 25.75L146.849 26.4062C146.162 27.6354 145.256 28.6094 144.131 29.3281C143.006 30.0469 141.844 30.4062 140.646 30.4062ZM162.428 22.1406C162.428 23.224 162.256 24.2917 161.913 25.3438C161.569 26.3854 161.079 27.2708 160.444 28C159.725 28.8333 158.892 29.4531 157.944 29.8594C156.996 30.2656 155.933 30.4688 154.756 30.4688C153.777 30.4688 152.845 30.2865 151.959 29.9219C151.074 29.5469 150.288 29.0052 149.6 28.2969C148.923 27.599 148.381 26.75 147.975 25.75C147.579 24.7396 147.381 23.6094 147.381 22.3594C147.381 19.9531 148.079 17.9844 149.475 16.4531C150.881 14.9219 152.72 14.1562 154.991 14.1562C157.147 14.1562 158.923 14.8854 160.319 16.3438C161.725 17.7917 162.428 19.724 162.428 22.1406ZM159.194 22.1719C159.194 21.3906 159.116 20.5677 158.959 19.7031C158.803 18.8281 158.569 18.0885 158.256 17.4844C157.923 16.8385 157.485 16.3229 156.944 15.9375C156.402 15.5417 155.741 15.3438 154.959 15.3438C154.157 15.3438 153.47 15.5417 152.897 15.9375C152.334 16.3333 151.876 16.875 151.522 17.5625C151.189 18.1979 150.954 18.9219 150.819 19.7344C150.683 20.5469 150.616 21.3333 150.616 22.0938C150.616 23.0938 150.694 24.0208 150.85 24.875C151.017 25.7188 151.277 26.474 151.631 27.1406C151.985 27.8073 152.428 28.3333 152.959 28.7188C153.501 29.0938 154.168 29.2812 154.959 29.2812C156.261 29.2812 157.293 28.651 158.053 27.3906C158.814 26.1302 159.194 24.3906 159.194 22.1719ZM180.538 29.7188L175.523 30.0625L175.288 29.8438V27.8906H175.194C174.944 28.151 174.663 28.4323 174.351 28.7344C174.038 29.026 173.679 29.2917 173.273 29.5312C172.804 29.8125 172.351 30.026 171.913 30.1719C171.476 30.3177 170.856 30.3906 170.054 30.3906C168.689 30.3906 167.648 29.9479 166.929 29.0625C166.22 28.1667 165.866 26.8698 165.866 25.1719V17.7969C165.866 17.4219 165.793 17.1094 165.648 16.8594C165.512 16.599 165.309 16.375 165.038 16.1875C164.851 16.0625 164.616 15.974 164.335 15.9219C164.054 15.8594 163.757 15.8177 163.444 15.7969V14.7812L168.585 14.4062L168.819 14.625V25.3281C168.819 26.4427 169.069 27.2812 169.569 27.8438C170.069 28.4062 170.668 28.6875 171.366 28.6875C171.939 28.6875 172.45 28.599 172.898 28.4219C173.345 28.2448 173.72 28.0365 174.023 27.7969C174.304 27.5781 174.549 27.349 174.757 27.1094C174.976 26.8594 175.142 26.6302 175.257 26.4219V17.6875C175.257 17.3438 175.184 17.0417 175.038 16.7812C174.892 16.5104 174.689 16.2812 174.429 16.0938C174.241 15.9688 173.96 15.8958 173.585 15.875C173.22 15.8438 172.809 15.8177 172.351 15.7969V14.7812L177.944 14.4062L178.179 14.625V26.8594C178.179 27.2135 178.252 27.5156 178.398 27.7656C178.543 28.0156 178.746 28.2292 179.007 28.4062C179.194 28.5208 179.418 28.599 179.679 28.6406C179.939 28.6719 180.226 28.6927 180.538 28.7031V29.7188ZM198.804 30H191.258V28.9688C191.497 28.9479 191.758 28.9271 192.039 28.9062C192.33 28.8854 192.57 28.8438 192.758 28.7812C193.049 28.6875 193.263 28.526 193.398 28.2969C193.544 28.0573 193.617 27.75 193.617 27.375V19.4531C193.617 18.3594 193.356 17.5156 192.836 16.9219C192.325 16.3281 191.7 16.0312 190.961 16.0312C190.409 16.0312 189.903 16.1198 189.445 16.2969C188.987 16.4635 188.58 16.6719 188.226 16.9219C187.883 17.1615 187.606 17.4219 187.398 17.7031C187.2 17.974 187.054 18.1927 186.961 18.3594V27.2188C186.961 27.5729 187.034 27.8646 187.179 28.0938C187.325 28.3229 187.544 28.5 187.836 28.625C188.054 28.7292 188.289 28.8073 188.539 28.8594C188.799 28.9115 189.065 28.9479 189.336 28.9688V30H181.789V28.9688C182.028 28.9479 182.273 28.9271 182.523 28.9062C182.784 28.8854 183.008 28.8438 183.195 28.7812C183.487 28.6875 183.7 28.526 183.836 28.2969C183.981 28.0573 184.054 27.75 184.054 27.375V17.8594C184.054 17.5052 183.976 17.1823 183.82 16.8906C183.674 16.5885 183.466 16.3438 183.195 16.1562C182.997 16.0312 182.763 15.9427 182.492 15.8906C182.221 15.8281 181.929 15.7865 181.617 15.7656V14.75L186.742 14.4062L186.961 14.625V16.7969H187.039C187.289 16.5469 187.601 16.25 187.976 15.9062C188.351 15.5521 188.705 15.2656 189.039 15.0469C189.424 14.7969 189.883 14.5885 190.414 14.4219C190.945 14.2552 191.544 14.1719 192.211 14.1719C193.69 14.1719 194.784 14.6354 195.492 15.5625C196.211 16.4792 196.57 17.7031 196.57 19.2344V27.25C196.57 27.6146 196.633 27.9115 196.758 28.1406C196.883 28.3594 197.096 28.5312 197.398 28.6562C197.648 28.7604 197.862 28.8333 198.039 28.875C198.226 28.9167 198.481 28.9479 198.804 28.9688V30ZM209.571 29.3281C208.894 29.6094 208.253 29.8438 207.649 30.0312C207.045 30.2292 206.305 30.3281 205.43 30.3281C204.138 30.3281 203.227 30.0052 202.696 29.3594C202.175 28.7031 201.914 27.7812 201.914 26.5938V16.1562H199.133V14.6562H201.977V9.85938H204.821V14.6562H209.242V16.1562H204.852V24.7656C204.852 25.4115 204.873 25.9531 204.914 26.3906C204.966 26.8177 205.081 27.1927 205.258 27.5156C205.425 27.8177 205.675 28.0469 206.008 28.2031C206.341 28.3594 206.789 28.4375 207.352 28.4375C207.612 28.4375 207.992 28.4167 208.492 28.375C209.003 28.3229 209.362 28.2604 209.571 28.1875V29.3281ZM217.962 30H210.509V28.9688C210.748 28.9479 210.993 28.9271 211.243 28.9062C211.504 28.8854 211.727 28.8438 211.915 28.7812C212.207 28.6875 212.42 28.526 212.556 28.2969C212.701 28.0573 212.774 27.75 212.774 27.375V17.8594C212.774 17.526 212.696 17.224 212.54 16.9531C212.394 16.6719 212.186 16.4375 211.915 16.25C211.717 16.125 211.431 16.0208 211.056 15.9375C210.681 15.8438 210.337 15.7865 210.024 15.7656V14.75L215.462 14.4062L215.681 14.625V27.1875C215.681 27.5521 215.748 27.8542 215.884 28.0938C216.03 28.3333 216.254 28.5104 216.556 28.625C216.785 28.7188 217.009 28.7969 217.227 28.8594C217.446 28.9115 217.691 28.9479 217.962 28.9688V30ZM215.993 8.32812C215.993 8.92188 215.795 9.44271 215.399 9.89062C215.014 10.3281 214.535 10.5469 213.962 10.5469C213.431 10.5469 212.967 10.3385 212.571 9.92188C212.186 9.49479 211.993 9.01042 211.993 8.46875C211.993 7.89583 212.186 7.39583 212.571 6.96875C212.967 6.54167 213.431 6.32812 213.962 6.32812C214.556 6.32812 215.04 6.53125 215.415 6.9375C215.8 7.33333 215.993 7.79688 215.993 8.32812ZM236.228 30H228.681V28.9688C228.921 28.9479 229.181 28.9271 229.462 28.9062C229.754 28.8854 229.994 28.8438 230.181 28.7812C230.473 28.6875 230.686 28.526 230.822 28.2969C230.968 28.0573 231.041 27.75 231.041 27.375V19.4531C231.041 18.3594 230.78 17.5156 230.259 16.9219C229.749 16.3281 229.124 16.0312 228.384 16.0312C227.832 16.0312 227.327 16.1198 226.869 16.2969C226.41 16.4635 226.004 16.6719 225.65 16.9219C225.306 17.1615 225.03 17.4219 224.822 17.7031C224.624 17.974 224.478 18.1927 224.384 18.3594V27.2188C224.384 27.5729 224.457 27.8646 224.603 28.0938C224.749 28.3229 224.968 28.5 225.259 28.625C225.478 28.7292 225.712 28.8073 225.962 28.8594C226.223 28.9115 226.489 28.9479 226.759 28.9688V30H219.212V28.9688C219.452 28.9479 219.697 28.9271 219.947 28.9062C220.207 28.8854 220.431 28.8438 220.619 28.7812C220.91 28.6875 221.124 28.526 221.259 28.2969C221.405 28.0573 221.478 27.75 221.478 27.375V17.8594C221.478 17.5052 221.4 17.1823 221.244 16.8906C221.098 16.5885 220.89 16.3438 220.619 16.1562C220.421 16.0312 220.186 15.9427 219.916 15.8906C219.645 15.8281 219.353 15.7865 219.041 15.7656V14.75L224.166 14.4062L224.384 14.625V16.7969H224.462C224.712 16.5469 225.025 16.25 225.4 15.9062C225.775 15.5521 226.129 15.2656 226.462 15.0469C226.848 14.7969 227.306 14.5885 227.837 14.4219C228.369 14.2552 228.968 14.1719 229.634 14.1719C231.114 14.1719 232.207 14.6354 232.916 15.5625C233.634 16.4792 233.994 17.7031 233.994 19.2344V27.25C233.994 27.6146 234.056 27.9115 234.181 28.1406C234.306 28.3594 234.52 28.5312 234.822 28.6562C235.072 28.7604 235.285 28.8333 235.462 28.875C235.65 28.9167 235.905 28.9479 236.228 28.9688V30ZM250.682 28.4062C251.099 28.8021 251.427 29.25 251.666 29.75C251.906 30.25 252.026 30.8698 252.026 31.6094C252.026 32.349 251.864 33.0417 251.541 33.6875C251.218 34.3438 250.729 34.9115 250.072 35.3906C249.375 35.8802 248.541 36.2604 247.572 36.5312C246.604 36.8021 245.406 36.9375 243.979 36.9375C241.645 36.9375 239.901 36.5938 238.744 35.9062C237.588 35.2292 237.01 34.2344 237.01 32.9219C237.01 31.8594 237.427 31.0208 238.26 30.4062C239.093 29.7917 240.156 29.4583 241.447 29.4062V29.1875C241.135 29.0938 240.812 28.9792 240.479 28.8438C240.145 28.6979 239.859 28.5312 239.619 28.3438C239.349 28.125 239.13 27.8698 238.963 27.5781C238.796 27.276 238.713 26.9062 238.713 26.4688C238.713 25.9167 238.906 25.4115 239.291 24.9531C239.687 24.4844 240.281 24.0833 241.072 23.75V23.5156C240.072 23.0469 239.296 22.4479 238.744 21.7188C238.192 20.9792 237.916 20.125 237.916 19.1562C237.916 17.6979 238.458 16.5 239.541 15.5625C240.635 14.625 242.031 14.1562 243.729 14.1562C244.197 14.1562 244.661 14.2031 245.119 14.2969C245.588 14.3906 246.062 14.5104 246.541 14.6562H251.916V16.1562H248.291V16.25C248.677 16.6979 248.963 17.1927 249.151 17.7344C249.338 18.276 249.432 18.8073 249.432 19.3281C249.432 20.6823 248.88 21.8281 247.776 22.7656C246.682 23.7031 245.406 24.1719 243.947 24.1719H242.057C241.817 24.2552 241.567 24.4062 241.307 24.625C241.046 24.8438 240.916 25.1406 240.916 25.5156C240.916 25.901 241.026 26.1979 241.244 26.4062C241.463 26.6042 241.729 26.7396 242.041 26.8125C242.343 26.8958 242.692 26.9479 243.088 26.9688C243.494 26.9896 243.911 27.0052 244.338 27.0156C244.796 27.026 245.421 27.0573 246.213 27.1094C247.015 27.1615 247.583 27.1927 247.916 27.2031C248.395 27.224 248.875 27.3385 249.354 27.5469C249.843 27.7552 250.286 28.0417 250.682 28.4062ZM246.463 19.2656C246.463 18.0469 246.213 17.0781 245.713 16.3594C245.224 15.6302 244.531 15.2656 243.635 15.2656C243.145 15.2656 242.724 15.3698 242.369 15.5781C242.026 15.776 241.744 16.0625 241.526 16.4375C241.317 16.7812 241.166 17.1979 241.072 17.6875C240.989 18.1667 240.947 18.6615 240.947 19.1719C240.947 20.3281 241.197 21.2708 241.697 22C242.208 22.7292 242.864 23.0938 243.666 23.0938C244.562 23.0938 245.25 22.7344 245.729 22.0156C246.218 21.2865 246.463 20.3698 246.463 19.2656ZM249.463 32.1875C249.463 31.6042 249.328 31.125 249.057 30.75C248.786 30.375 248.375 30.1198 247.822 29.9844C247.531 29.9427 246.932 29.8958 246.026 29.8438C245.119 29.7917 244.067 29.7656 242.869 29.7656C241.744 29.9844 240.942 30.349 240.463 30.8594C239.994 31.3802 239.76 32.0469 239.76 32.8594C239.76 33.224 239.838 33.5729 239.994 33.9062C240.151 34.2396 240.421 34.5469 240.807 34.8281C241.171 35.099 241.661 35.3177 242.276 35.4844C242.89 35.6615 243.64 35.75 244.526 35.75C246.057 35.75 247.26 35.4531 248.135 34.8594C249.02 34.276 249.463 33.3854 249.463 32.1875Z" fill="#F9FAFB"/>
<rect y="34" width="233" height="2" fill="white"/>
</svg>
